<svg version="1.1" id="Layer_1" xmlns="http://www.w3.org/2000/svg" xmlns:xlink="http://www.w3.org/1999/xlink" x="0px" y="0px"
	 width="100%" viewBox="0 0 717 630" enable-background="new 0 0 717 630" xml:space="preserve">
<path fill="#67217A" opacity="1.000000" stroke="none" 
	d="
M1.000003,589.000000 
	C1.000000,407.307495 1.000000,225.615005 1.372608,43.548531 
	C2.140288,42.689232 2.717494,42.265095 2.904073,41.709724 
	C9.317799,22.618494 21.405249,9.153544 40.995743,3.018677 
	C41.796066,2.768051 42.337791,1.691662 43.000000,1.000000 
	C253.692505,1.000000 464.385010,1.000000 675.450317,1.374994 
	C676.471069,2.177321 677.063049,2.791694 677.775208,3.004716 
	C697.101746,8.785959 708.991394,22.066950 715.837646,40.519085 
	C716.194580,41.481064 717.262878,42.179089 718.000000,43.000000 
	C718.000000,224.692505 718.000000,406.385010 717.627563,588.448242 
	C716.825317,589.471252 716.230225,590.068115 715.989685,590.784119 
	C709.678223,609.567200 697.134216,622.167664 678.504822,628.826233 
	C677.534851,629.172913 676.828857,630.258423 676.000000,631.000000 
	C465.307495,631.000000 254.615005,631.000000 43.548409,630.627197 
	C42.521564,629.824768 41.924351,629.228088 41.207932,628.989868 
	C22.377880,622.727173 9.833255,610.128845 3.171741,591.505554 
	C2.824746,590.535522 1.740837,589.829163 1.000003,589.000000 
M280.344299,135.869080 
	C279.151093,139.249069 277.957886,142.629059 276.317291,146.520889 
	C276.127167,147.165985 275.937073,147.811081 275.287018,149.042740 
	C274.635345,150.980164 273.983704,152.917587 272.411346,155.011444 
	C271.884613,154.690063 271.357910,154.368683 270.780792,153.279419 
	C268.559937,147.107574 266.436401,140.897385 264.034363,134.796875 
	C263.565247,133.605484 262.015198,132.839691 260.055634,131.774185 
	C256.485229,131.774185 252.914810,131.774185 249.354935,131.774185 
	C249.039474,128.322861 248.807541,125.785530 248.575623,123.248199 
	C248.060471,123.066536 247.545303,122.884865 247.030136,122.703201 
	C246.234512,124.000908 244.950806,125.227203 244.748215,126.611694 
	C244.365448,129.227524 245.077362,132.232208 240.799011,131.921631 
	C240.456772,131.896805 239.689117,133.136871 239.726166,133.752594 
	C239.764511,134.389893 240.419434,135.268021 241.025513,135.530182 
	C242.011688,135.956787 243.177597,135.967896 244.940140,136.269379 
	C244.940140,143.129868 244.640121,149.774185 245.036789,156.376648 
	C245.344101,161.491577 249.320923,164.201263 254.094040,162.924255 
	C255.343597,162.589935 256.227478,160.888687 257.279266,159.815216 
	C250.096848,159.200592 249.240051,158.538651 249.071472,152.544983 
	C248.918488,147.105286 249.039108,141.657898 249.039108,136.339188 
	C252.802216,135.521255 256.112579,134.801743 259.558960,134.898178 
	C262.077301,141.559021 264.401825,148.302124 267.181519,154.852051 
	C269.064270,159.288528 270.232269,163.513245 267.174072,168.543533 
	C264.504852,170.380905 261.835632,172.218277 258.971008,174.465714 
	C259.290100,175.037292 259.609222,175.608887 260.488647,176.620361 
	C262.653900,176.064697 264.819153,175.509033 267.551086,174.764618 
	C268.261841,173.840515 268.972595,172.916428 270.072632,171.706726 
	C270.297363,171.441010 270.373932,171.137878 270.845306,170.306961 
	C275.682953,158.210114 280.520599,146.113266 285.813416,133.332703 
	C283.092621,130.651382 282.341614,130.953491 280.344299,135.869080 
M357.045044,244.358978 
	C364.079590,249.836395 371.114136,255.313812 377.227234,260.073761 
	C381.325592,256.665466 385.278748,253.377975 389.208618,250.109818 
	C354.196869,212.929901 292.727112,193.195206 233.262711,214.322601 
	C171.254105,236.353958 132.996429,294.996155 135.273300,364.157654 
	C137.380219,428.157043 180.660629,483.502350 242.883484,501.428345 
	C300.398987,517.998169 358.508331,496.511139 388.899689,462.920837 
	C385.252686,459.386658 381.588745,455.836090 377.650055,452.019257 
	C350.312622,477.990143 318.034180,491.520691 280.314697,490.264526 
	C242.408142,489.002106 210.688583,473.766632 185.406143,445.557617 
	C142.144882,397.288574 141.439194,318.364807 183.613617,268.998260 
	C227.113144,218.080673 299.459534,207.602646 357.045044,244.358978 
M268.446655,306.863251 
	C252.536987,311.281555 242.248993,321.558716 237.264511,337.152985 
	C233.477859,348.999634 233.118057,361.083557 235.841583,373.193909 
	C240.782578,395.164581 256.985687,408.626709 279.439178,409.604950 
	C302.797546,410.622681 320.785156,398.912842 327.576294,377.659149 
	C332.448181,362.411835 332.006592,347.039551 326.219330,332.067291 
	C321.212036,319.112915 311.829773,310.672668 298.395599,306.895599 
	C288.707458,304.171814 278.977631,304.331329 268.446655,306.863251 
M491.794220,367.319122 
	C490.571747,362.801727 493.459473,362.954376 496.541962,362.958954 
	C526.684570,363.003845 556.827148,362.988525 586.969788,362.990295 
	C588.728333,362.990387 590.486877,362.990326 592.162415,362.990326 
	C594.231018,342.588501 589.736511,320.482697 580.269409,307.326050 
	C574.972412,299.964661 568.339172,294.349243 559.985291,290.877380 
	C535.658020,280.767029 499.523834,285.768799 482.206909,320.746033 
	C468.384735,348.664459 469.710846,377.181335 483.646393,404.882568 
	C489.123566,415.770142 497.984161,423.853882 509.470062,428.126038 
	C534.545105,437.452606 558.517029,434.029907 581.274292,420.538177 
	C582.399475,419.871124 583.646667,418.337921 583.713379,417.145172 
	C583.988037,412.236298 583.828369,407.303070 583.828369,402.424957 
	C582.923828,402.353668 582.527893,402.194061 582.311401,402.326843 
	C581.181702,403.019714 580.087830,403.772919 578.999146,404.530487 
	C570.705383,410.301544 561.692017,414.416138 551.779663,416.540070 
	C522.703430,422.770203 499.750031,408.488861 493.476624,380.103424 
	C492.618469,376.220581 492.381042,372.200592 491.794220,367.319122 
M406.811829,357.704437 
	C407.328247,344.739502 409.601715,332.182953 416.022369,320.719635 
	C421.544128,310.861176 429.439423,303.838715 441.230164,303.632355 
	C446.986511,303.531555 452.777283,305.396027 458.886932,306.427368 
	C458.886932,302.388000 458.617706,297.893585 458.969696,293.448395 
	C459.266022,289.706299 457.483704,288.608521 454.282654,287.917175 
	C435.736725,283.911469 418.798920,292.746613 410.280945,311.001221 
	C409.500519,312.673737 408.609375,314.294586 407.769623,315.939423 
	C407.318848,315.813965 406.868042,315.688538 406.417267,315.563110 
	C406.417267,307.045990 406.417267,298.528900 406.417267,290.014832 
	C400.299988,290.014832 394.871399,290.014832 389.324982,290.014832 
	C389.324982,336.759094 389.324982,383.168945 389.324982,429.734924 
	C395.068726,429.734924 400.499817,429.734924 406.802765,429.734924 
	C406.802765,405.876343 406.802765,382.269989 406.811829,357.704437 
M430.414398,145.705872 
	C430.356232,144.045059 430.393280,142.374298 430.221039,140.725403 
	C429.800995,136.703842 428.382812,133.224106 424.258118,131.696060 
	C420.222015,130.200821 416.417419,130.722061 413.046295,133.547974 
	C412.172943,134.280045 411.309601,135.024094 410.467072,135.741013 
	C402.926758,129.653214 400.774841,129.442108 393.550079,133.687729 
	C391.654144,132.918030 390.014557,132.252426 387.705383,131.314987 
	C387.705383,141.350815 387.618896,150.150818 387.802704,158.945190 
	C387.828918,160.199738 389.164307,161.426910 389.893799,162.666779 
	C390.608459,161.421478 391.862854,160.209808 391.942871,158.924973 
	C392.263000,153.787109 391.964264,148.605972 392.379089,143.480057 
	C392.804749,138.220322 396.231171,134.840530 400.365387,134.857498 
	C404.429688,134.874176 406.772614,137.853958 406.981537,143.775085 
	C407.163269,148.924973 406.926300,154.090332 407.139923,159.237854 
	C407.188110,160.398788 408.337982,161.514023 408.980743,162.650284 
	C409.775330,161.471054 411.186554,160.326828 411.255829,159.106430 
	C411.528748,154.298141 411.286255,149.463455 411.412262,144.643219 
	C411.557861,139.075104 415.047272,134.981155 419.442017,134.962952 
	C423.755951,134.945084 425.923981,137.908081 426.049561,144.270386 
	C426.148041,149.258240 425.962982,154.254349 426.174408,159.235306 
	C426.223785,160.399155 427.367950,161.516541 428.008362,162.655334 
	C428.806427,161.479721 430.206177,160.346619 430.292786,159.120743 
	C430.585114,154.983032 430.411163,150.812378 430.414398,145.705872 
M504.417755,142.289413 
	C505.380646,138.878754 506.343536,135.468079 507.491364,131.402420 
	C500.366516,132.170013 501.983093,137.812866 500.519043,141.197891 
	C498.883911,144.978363 497.993286,149.080841 496.778656,153.043182 
	C496.293060,152.999100 495.807465,152.955002 495.321869,152.910919 
	C493.546021,146.767090 491.861633,140.593979 489.912231,134.505722 
	C489.549927,133.374313 488.121368,132.584290 487.184906,131.636703 
	C486.361481,132.523331 485.176636,133.273529 484.781036,134.321640 
	C483.491455,137.738327 482.523376,141.274887 481.367188,144.743866 
	C480.428528,147.560165 479.397095,150.345566 478.406799,153.144684 
	C477.947845,153.064423 477.488861,152.984161 477.029877,152.903915 
	C475.251984,146.867661 473.425262,140.845169 471.717957,134.789017 
	C470.935577,132.013733 469.612579,130.717712 466.367859,132.441620 
	C468.886871,140.830078 471.285889,149.280716 474.033081,157.616608 
	C474.657684,159.511917 476.487762,161.009949 477.762970,162.690842 
	C478.907623,161.036331 480.441589,159.526947 481.122772,157.699646 
	C483.043732,152.546677 484.614410,147.263153 486.323151,142.031082 
	C486.828247,142.058762 487.333374,142.086456 487.838470,142.114136 
	C489.525848,147.752029 491.080444,153.435547 492.991974,158.996368 
	C493.483246,160.425598 495.099243,161.468185 496.198517,162.688431 
	C497.214050,161.549515 498.701324,160.573990 499.162262,159.243011 
	C501.010559,153.905930 502.540680,148.458664 504.417755,142.289413 
M151.582352,130.516190 
	C151.652756,122.575798 151.010300,123.585220 158.526001,123.551750 
	C160.855957,123.541374 163.210968,123.708206 165.504272,123.408913 
	C166.520508,123.276283 167.411850,122.186722 168.359879,121.531548 
	C167.413239,120.898834 166.487183,119.758995 165.516464,119.719597 
	C160.864151,119.530830 156.183334,119.882576 151.544693,119.568779 
	C147.606827,119.302391 146.799301,120.965820 146.866852,124.513351 
	C147.060059,134.662109 146.916962,144.816971 146.952454,154.969254 
	C146.960922,157.393799 147.149887,159.817703 147.272308,162.618637 
	C153.777130,162.618637 159.749496,162.742279 165.708542,162.515686 
	C166.919312,162.469635 168.079865,161.103561 169.263565,160.346024 
	C168.088928,159.775879 166.933044,158.764755 165.736328,158.713882 
	C161.174667,158.519928 156.599838,158.635605 151.835114,158.635605 
	C151.835114,153.016815 151.835114,148.267334 151.835114,142.920761 
	C156.047028,142.920761 160.002838,143.075485 163.931992,142.820282 
	C165.018097,142.749741 166.024963,141.459259 167.068192,140.728516 
	C165.990005,140.039948 164.944641,138.827454 163.827713,138.757523 
	C159.922226,138.512955 155.992035,138.662796 151.578812,138.662796 
	C151.578812,135.774872 151.578812,133.647903 151.582352,130.516190 
M568.187927,126.572372 
	C568.191284,137.222336 568.113586,147.873672 568.296326,158.520554 
	C568.320190,159.914749 569.679932,161.286011 570.420959,162.667908 
	C571.134583,161.246567 572.281555,159.879257 572.466980,158.392075 
	C572.801758,155.707077 572.561768,152.950424 572.561768,149.827194 
	C580.016663,152.990417 581.716003,163.078690 590.430786,162.686066 
	C591.067871,161.982742 591.705017,161.279404 592.342102,160.576080 
	C586.825256,156.387634 581.308350,152.199173 575.637817,147.894058 
	C581.502869,141.706116 585.789917,137.183060 590.790222,131.907532 
	C581.031372,130.946213 579.734253,140.961792 572.952576,143.266846 
	C572.803467,141.711105 572.584351,140.444443 572.576965,139.176544 
	C572.539307,132.687042 572.639282,126.194946 572.459412,119.710190 
	C572.434021,118.796089 571.135803,117.917305 570.426697,117.022171 
	C569.686462,117.884857 568.474121,118.664764 568.305359,119.627647 
	C567.965515,121.565887 568.194214,123.603783 568.187927,126.572372 
M461.776611,147.937836 
	C465.998108,142.109283 460.607147,131.907806 452.834747,131.016846 
	C446.484467,130.288910 441.071625,133.442871 438.397095,139.429413 
	C435.259766,146.451813 436.858765,155.941162 441.911713,160.287903 
	C445.892944,163.712738 454.787750,164.336121 459.334595,161.200516 
	C460.506927,160.392029 460.972260,158.558350 461.762360,157.195618 
	C448.455139,161.673004 441.389038,158.550217 442.020386,148.432709 
	C442.323761,148.312332 442.626373,148.089050 442.930603,148.086777 
	C448.922668,148.041748 454.914948,148.022369 461.776611,147.937836 
M367.595520,130.983063 
	C359.468231,132.140869 358.178802,133.112259 358.807587,137.603394 
	C371.055725,133.095932 375.110168,134.444214 374.072693,142.732651 
	C369.740540,143.702911 365.271545,144.324005 361.074371,145.746933 
	C356.561554,147.276871 354.848450,151.030090 355.500244,155.689743 
	C356.081512,159.845154 359.759033,163.296799 364.214569,163.024551 
	C367.679932,162.812805 371.069122,161.355377 374.188538,160.531769 
	C375.321533,161.176346 376.565552,161.884094 377.809570,162.591827 
	C378.318146,161.321320 379.244904,160.057053 379.263977,158.779251 
	C379.353149,152.804962 379.462128,146.808197 379.049652,140.855103 
	C378.572601,133.969574 375.533752,131.387512 367.595520,130.983063 
M312.904541,119.613182 
	C311.472595,119.756195 310.040619,119.899208 308.301300,120.072914 
	C308.301300,132.115204 308.138794,143.742813 308.433899,155.358795 
	C308.495392,157.777618 306.007263,161.843506 310.914764,162.343567 
	C311.375122,162.390472 312.876373,157.872131 312.914551,155.457901 
	C313.103912,143.481049 312.988037,143.479004 324.624176,143.185562 
	C324.956421,143.177170 325.357941,143.307251 325.609406,143.164825 
	C326.606110,142.600327 327.555878,141.953064 328.523071,141.336487 
	C327.502594,140.598297 326.518738,139.291962 325.455078,139.223358 
	C321.508667,138.968811 317.535980,139.121933 313.433167,139.121933 
	C313.433167,133.801941 313.433167,128.944031 313.433167,123.550240 
	C318.128265,123.550240 322.425476,123.693596 326.700592,123.449600 
	C327.771301,123.388496 328.770966,122.082031 329.803314,121.347939 
	C328.798279,120.766594 327.813110,119.728119 326.784790,119.683495 
	C322.471008,119.496292 318.144348,119.606659 312.904541,119.613182 
M540.108276,143.284332 
	C538.062805,135.189865 534.090088,131.399887 527.205688,130.975311 
	C515.187500,130.234116 507.876892,139.909546 511.063843,152.338699 
	C512.780273,159.032913 517.862732,163.051941 524.778870,163.184219 
	C532.290100,163.327866 537.557434,159.848373 539.398987,152.963348 
	C540.153564,150.141998 539.943787,147.062668 540.108276,143.284332 
M178.752884,162.669510 
	C179.651443,161.436295 181.246353,160.246368 181.326187,158.962250 
	C181.645447,153.825699 181.275146,148.646942 181.578949,143.508560 
	C181.878098,138.449127 186.323776,134.487625 190.761627,134.804443 
	C194.854446,135.096619 197.191620,138.255798 197.287964,143.884079 
	C197.373337,148.871857 197.168365,153.868729 197.401489,158.847061 
	C197.462418,160.147949 198.677582,161.394775 199.362625,162.666428 
	C200.165329,161.341614 201.579224,160.053055 201.660309,158.685455 
	C201.945297,153.879395 201.743179,149.045929 201.780777,144.223297 
	C201.818390,139.399490 201.373505,134.653671 196.517120,132.159607 
	C191.566238,129.617020 186.845535,130.757309 183.020767,133.833984 
	C181.241669,133.095764 179.750092,132.476852 178.258514,131.857941 
	C177.833481,133.347733 177.085907,134.828094 177.041962,136.329041 
	C176.891144,141.480133 176.860001,146.642670 177.032272,151.792511 
	C177.151291,155.351044 177.681168,158.895828 178.752884,162.669510 
M221.510193,158.946518 
	C218.797516,159.487488 216.573456,158.724197 216.472351,155.738388 
	C216.249985,149.171585 216.403336,142.592056 216.403336,136.994019 
	C219.488068,135.635544 221.679504,134.670471 223.870926,133.705383 
	C221.590530,132.707794 219.310135,131.710205 216.521927,130.490463 
	C216.374252,128.553452 216.177734,125.976021 215.979752,123.379356 
	C213.057693,123.860382 213.057693,123.860382 211.264053,130.756500 
	C209.515656,131.762177 208.098602,132.577271 206.681549,133.392365 
	C208.167557,134.535782 209.653564,135.679184 211.926010,137.427734 
	C211.926010,142.708618 211.810913,149.000931 211.959686,155.287003 
	C212.097214,161.097290 216.487137,164.562225 221.565338,162.962402 
	C224.158707,162.145416 225.338806,160.766129 221.510193,158.946518 
M340.915863,160.749756 
	C340.995239,156.110519 340.888031,151.458939 341.194092,146.834702 
	C341.771881,138.104248 343.929626,135.843170 352.103180,134.773087 
	C351.683502,129.695114 349.793518,129.619568 342.115082,134.123840 
	C340.831116,133.229004 339.726990,132.459534 338.622864,131.690048 
	C338.055054,132.548141 337.006897,133.398987 336.993835,134.265442 
	C336.863861,142.883591 336.820190,151.505524 336.942719,160.123672 
	C336.986603,163.212067 338.593506,163.473907 340.915863,160.749756 
M558.477356,135.255539 
	C559.878784,135.255539 561.280212,135.255539 563.755371,135.255539 
	C562.666870,133.377274 561.830750,131.258057 561.422302,131.337509 
	C558.334412,131.938065 555.330505,132.970184 552.085510,133.931183 
	C551.458313,133.431152 550.106812,132.353683 547.569092,130.330566 
	C547.569092,141.411591 547.509338,150.683975 547.663391,159.952820 
	C547.678467,160.859421 549.009583,161.744156 549.729797,162.639038 
	C550.371216,161.674103 551.508850,160.739380 551.569763,159.739090 
	C551.862244,154.933975 551.662109,150.095657 552.030518,145.299362 
	C552.341736,141.247620 553.421326,137.371460 558.477356,135.255539 
M234.040756,145.517471 
	C234.036316,141.698120 234.177765,137.868713 233.915680,134.067123 
	C233.856796,133.212936 232.387741,132.455963 231.567871,131.654236 
	C230.944443,132.453003 229.791473,133.243622 229.779022,134.051804 
	C229.645996,142.684891 229.628677,151.321960 229.787018,159.954117 
	C229.803741,160.865356 231.144745,161.752274 231.871384,162.650482 
	C232.585464,161.752716 233.869980,160.883575 233.916718,159.952301 
	C234.141174,155.479507 234.031189,150.989914 234.040756,145.517471 
M229.112305,121.498634 
	C229.705246,124.238228 231.413666,125.179344 233.675980,123.604286 
	C234.390747,123.106651 234.688049,120.613388 234.110397,119.914429 
	C232.302017,117.726257 230.456711,118.328430 229.112305,121.498634 
z"/>
<path fill="#000000" opacity="1.000000" stroke="none" 
	d="
M676.468628,631.000000 
	C676.828857,630.258423 677.534851,629.172913 678.504822,628.826233 
	C697.134216,622.167664 709.678223,609.567200 715.989685,590.784119 
	C716.230225,590.068115 716.825317,589.471252 717.627563,588.909424 
	C718.000000,602.926697 718.000000,616.853333 718.000000,631.000000 
	C704.313232,631.000000 690.625244,631.000000 676.468628,631.000000 
z"/>
<path fill="#000000" opacity="1.000000" stroke="none" 
	d="
M1.000003,589.468628 
	C1.740837,589.829163 2.824746,590.535522 3.171741,591.505554 
	C9.833255,610.128845 22.377880,622.727173 41.207932,628.989868 
	C41.924351,629.228088 42.521564,629.824768 43.087154,630.627197 
	C29.073322,631.000000 15.146646,631.000000 1.000000,631.000000 
	C1.000000,617.313232 1.000000,603.625244 1.000003,589.468628 
z"/>
<path fill="#000000" opacity="1.000000" stroke="none" 
	d="
M42.531342,1.000000 
	C42.337791,1.691662 41.796066,2.768051 40.995743,3.018677 
	C21.405249,9.153544 9.317799,22.618494 2.904073,41.709724 
	C2.717494,42.265095 2.140288,42.689232 1.372608,43.087280 
	C1.000000,29.073322 1.000000,15.146646 1.000000,1.000000 
	C14.686776,1.000000 28.374729,1.000000 42.531342,1.000000 
z"/>
<path fill="#000000" opacity="1.000000" stroke="none" 
	d="
M718.000000,42.531342 
	C717.262878,42.179089 716.194580,41.481064 715.837646,40.519085 
	C708.991394,22.066950 697.101746,8.785959 677.775208,3.004716 
	C677.063049,2.791694 676.471069,2.177321 675.911499,1.374994 
	C689.926697,1.000000 703.853333,1.000000 718.000000,1.000000 
	C718.000000,14.686776 718.000000,28.374729 718.000000,42.531342 
z"/>
<path fill="#FBF9FB" opacity="1.000000" stroke="none" 
	d="
M356.739441,244.163727 
	C299.459534,207.602646 227.113144,218.080673 183.613617,268.998260 
	C141.439194,318.364807 142.144882,397.288574 185.406143,445.557617 
	C210.688583,473.766632 242.408142,489.002106 280.314697,490.264526 
	C318.034180,491.520691 350.312622,477.990143 377.650055,452.019257 
	C381.588745,455.836090 385.252686,459.386658 388.899689,462.920837 
	C358.508331,496.511139 300.398987,517.998169 242.883484,501.428345 
	C180.660629,483.502350 137.380219,428.157043 135.273300,364.157654 
	C132.996429,294.996155 171.254105,236.353958 233.262711,214.322601 
	C292.727112,193.195206 354.196869,212.929901 389.208618,250.109818 
	C385.278748,253.377975 381.325592,256.665466 377.227234,260.073761 
	C371.114136,255.313812 364.079590,249.836395 356.739441,244.163727 
z"/>
<path fill="#40CBF3" opacity="1.000000" stroke="none" 
	d="
M268.842133,306.754028 
	C278.977631,304.331329 288.707458,304.171814 298.395599,306.895599 
	C311.829773,310.672668 321.212036,319.112915 326.219330,332.067291 
	C332.006592,347.039551 332.448181,362.411835 327.576294,377.659149 
	C320.785156,398.912842 302.797546,410.622681 279.439178,409.604950 
	C256.985687,408.626709 240.782578,395.164581 235.841583,373.193909 
	C233.118057,361.083557 233.477859,348.999634 237.264511,337.152985 
	C242.248993,321.558716 252.536987,311.281555 268.842133,306.754028 
z"/>
<path fill="#FBF9FB" opacity="1.000000" stroke="none" 
	d="
M491.825256,367.781616 
	C492.381042,372.200592 492.618469,376.220581 493.476624,380.103424 
	C499.750031,408.488861 522.703430,422.770203 551.779663,416.540070 
	C561.692017,414.416138 570.705383,410.301544 578.999146,404.530487 
	C580.087830,403.772919 581.181702,403.019714 582.311401,402.326843 
	C582.527893,402.194061 582.923828,402.353668 583.828369,402.424957 
	C583.828369,407.303070 583.988037,412.236298 583.713379,417.145172 
	C583.646667,418.337921 582.399475,419.871124 581.274292,420.538177 
	C558.517029,434.029907 534.545105,437.452606 509.470062,428.126038 
	C497.984161,423.853882 489.123566,415.770142 483.646393,404.882568 
	C469.710846,377.181335 468.384735,348.664459 482.206909,320.746033 
	C499.523834,285.768799 535.658020,280.767029 559.985291,290.877380 
	C568.339172,294.349243 574.972412,299.964661 580.269409,307.326050 
	C589.736511,320.482697 594.231018,342.588501 592.162415,362.990326 
	C590.486877,362.990326 588.728333,362.990387 586.969788,362.990295 
	C556.827148,362.988525 526.684570,363.003845 496.541962,362.958954 
	C493.459473,362.954376 490.571747,362.801727 491.825256,367.781616 
M551.487793,304.780182 
	C524.880676,294.806641 495.661774,311.196167 492.731018,347.041321 
	C519.781433,347.041321 546.812378,347.041321 573.821167,347.041321 
	C574.997864,328.488892 566.693115,312.475464 551.487793,304.780182 
z"/>
<path fill="#F9F6FA" opacity="1.000000" stroke="none" 
	d="
M406.807312,358.184021 
	C406.802765,382.269989 406.802765,405.876343 406.802765,429.734924 
	C400.499817,429.734924 395.068726,429.734924 389.324982,429.734924 
	C389.324982,383.168945 389.324982,336.759094 389.324982,290.014832 
	C394.871399,290.014832 400.299988,290.014832 406.417267,290.014832 
	C406.417267,298.528900 406.417267,307.045990 406.417267,315.563110 
	C406.868042,315.688538 407.318848,315.813965 407.769623,315.939423 
	C408.609375,314.294586 409.500519,312.673737 410.280945,311.001221 
	C418.798920,292.746613 435.736725,283.911469 454.282654,287.917175 
	C457.483704,288.608521 459.266022,289.706299 458.969696,293.448395 
	C458.617706,297.893585 458.886932,302.388000 458.886932,306.427368 
	C452.777283,305.396027 446.986511,303.531555 441.230164,303.632355 
	C429.439423,303.838715 421.544128,310.861176 416.022369,320.719635 
	C409.601715,332.182953 407.328247,344.739502 406.807312,358.184021 
z"/>
<path fill="#EBE3ED" opacity="1.000000" stroke="none" 
	d="
M430.414948,146.180099 
	C430.411163,150.812378 430.585114,154.983032 430.292786,159.120743 
	C430.206177,160.346619 428.806427,161.479721 428.008362,162.655334 
	C427.367950,161.516541 426.223785,160.399155 426.174408,159.235306 
	C425.962982,154.254349 426.148041,149.258240 426.049561,144.270386 
	C425.923981,137.908081 423.755951,134.945084 419.442017,134.962952 
	C415.047272,134.981155 411.557861,139.075104 411.412262,144.643219 
	C411.286255,149.463455 411.528748,154.298141 411.255829,159.106430 
	C411.186554,160.326828 409.775330,161.471054 408.980713,162.650299 
	C408.337982,161.514023 407.188110,160.398788 407.139923,159.237854 
	C406.926300,154.090332 407.163269,148.924973 406.981537,143.775085 
	C406.772614,137.853958 404.429688,134.874176 400.365387,134.857498 
	C396.231171,134.840530 392.804749,138.220322 392.379089,143.480057 
	C391.964264,148.605972 392.263000,153.787109 391.942871,158.924973 
	C391.862854,160.209808 390.608459,161.421478 389.893799,162.666779 
	C389.164307,161.426910 387.828918,160.199738 387.802704,158.945190 
	C387.618896,150.150818 387.705383,141.350815 387.705383,131.314987 
	C390.014557,132.252426 391.654144,132.918030 393.550079,133.687729 
	C400.774841,129.442108 402.926758,129.653214 410.467072,135.741013 
	C411.309601,135.024094 412.172943,134.280045 413.046295,133.547974 
	C416.417419,130.722061 420.222015,130.200821 424.258118,131.696060 
	C428.382812,133.224106 429.800995,136.703842 430.221039,140.725403 
	C430.393280,142.374298 430.356232,144.045059 430.414948,146.180099 
z"/>
<path fill="#E7DCE9" opacity="1.000000" stroke="none" 
	d="
M504.303101,142.670776 
	C502.540680,148.458664 501.010559,153.905930 499.162262,159.243011 
	C498.701324,160.573990 497.214050,161.549515 496.198547,162.688416 
	C495.099243,161.468185 493.483246,160.425598 492.991974,158.996368 
	C491.080444,153.435547 489.525848,147.752029 487.838470,142.114136 
	C487.333374,142.086456 486.828247,142.058762 486.323151,142.031082 
	C484.614410,147.263153 483.043732,152.546677 481.122772,157.699646 
	C480.441589,159.526947 478.907623,161.036331 477.763000,162.690842 
	C476.487762,161.009949 474.657684,159.511917 474.033081,157.616608 
	C471.285889,149.280716 468.886871,140.830078 466.367859,132.441620 
	C469.612579,130.717712 470.935577,132.013733 471.717957,134.789017 
	C473.425262,140.845169 475.251984,146.867661 477.029877,152.903915 
	C477.488861,152.984161 477.947845,153.064423 478.406799,153.144684 
	C479.397095,150.345566 480.428528,147.560165 481.367188,144.743866 
	C482.523376,141.274887 483.491455,137.738327 484.781036,134.321640 
	C485.176636,133.273529 486.361481,132.523331 487.184906,131.636703 
	C488.121368,132.584290 489.549927,133.374313 489.912231,134.505722 
	C491.861633,140.593979 493.546021,146.767090 495.321869,152.910919 
	C495.807465,152.955002 496.293060,152.999100 496.778656,153.043182 
	C497.993286,149.080841 498.883911,144.978363 500.519043,141.197891 
	C501.983093,137.812866 500.366516,132.170013 507.491364,131.402420 
	C506.343536,135.468079 505.380646,138.878754 504.303101,142.670776 
z"/>
<path fill="#EFE9F1" opacity="1.000000" stroke="none" 
	d="
M151.580582,131.018555 
	C151.578812,133.647903 151.578812,135.774872 151.578812,138.662796 
	C155.992035,138.662796 159.922226,138.512955 163.827713,138.757523 
	C164.944641,138.827454 165.990005,140.039948 167.068192,140.728516 
	C166.024963,141.459259 165.018097,142.749741 163.931992,142.820282 
	C160.002838,143.075485 156.047028,142.920761 151.835114,142.920761 
	C151.835114,148.267334 151.835114,153.016815 151.835114,158.635605 
	C156.599838,158.635605 161.174667,158.519928 165.736328,158.713882 
	C166.933044,158.764755 168.088928,159.775879 169.263565,160.346024 
	C168.079865,161.103561 166.919312,162.469635 165.708542,162.515686 
	C159.749496,162.742279 153.777130,162.618637 147.272308,162.618637 
	C147.149887,159.817703 146.960922,157.393799 146.952454,154.969254 
	C146.916962,144.816971 147.060059,134.662109 146.866852,124.513351 
	C146.799301,120.965820 147.606827,119.302391 151.544693,119.568779 
	C156.183334,119.882576 160.864151,119.530830 165.516464,119.719597 
	C166.487183,119.758995 167.413239,120.898834 168.359879,121.531548 
	C167.411850,122.186722 166.520508,123.276283 165.504272,123.408913 
	C163.210968,123.708206 160.855957,123.541374 158.526001,123.551750 
	C151.010300,123.585220 151.652756,122.575798 151.580582,131.018555 
z"/>
<path fill="#EBE1EC" opacity="1.000000" stroke="none" 
	d="
M568.188110,126.086472 
	C568.194214,123.603783 567.965515,121.565887 568.305359,119.627647 
	C568.474121,118.664764 569.686462,117.884857 570.426697,117.022171 
	C571.135803,117.917305 572.434021,118.796089 572.459412,119.710190 
	C572.639282,126.194946 572.539307,132.687042 572.576965,139.176544 
	C572.584351,140.444443 572.803467,141.711105 572.952576,143.266846 
	C579.734253,140.961792 581.031372,130.946213 590.790222,131.907532 
	C585.789917,137.183060 581.502869,141.706116 575.637817,147.894058 
	C581.308350,152.199173 586.825256,156.387634 592.342102,160.576080 
	C591.705017,161.279404 591.067871,161.982742 590.430786,162.686066 
	C581.716003,163.078690 580.016663,152.990417 572.561768,149.827194 
	C572.561768,152.950424 572.801758,155.707077 572.466980,158.392075 
	C572.281555,159.879257 571.134583,161.246567 570.420959,162.667908 
	C569.679932,161.286011 568.320190,159.914749 568.296326,158.520554 
	C568.113586,147.873672 568.191284,137.222336 568.188110,126.086472 
z"/>
<path fill="#ECE4EE" opacity="1.000000" stroke="none" 
	d="
M461.341888,147.967804 
	C454.914948,148.022369 448.922668,148.041748 442.930603,148.086777 
	C442.626373,148.089050 442.323761,148.312332 442.021118,148.434540 
	C441.389038,158.550217 448.455139,161.673004 461.762360,157.195618 
	C460.972260,158.558350 460.506927,160.392029 459.334595,161.200516 
	C454.787750,164.336121 445.892944,163.712738 441.911713,160.287903 
	C436.858765,155.941162 435.259766,146.451813 438.397095,139.429413 
	C441.071625,133.442871 446.484467,130.288910 452.834747,131.016846 
	C460.607147,131.907806 465.998108,142.109283 461.341888,147.967804 
M442.213348,141.320374 
	C442.651489,142.292496 443.055603,144.089920 443.533020,144.109604 
	C448.528717,144.315628 453.536194,144.236740 458.768097,144.236740 
	C458.427185,139.427246 457.074402,136.124573 453.002899,135.060516 
	C448.041412,133.763901 444.855835,136.479340 442.213348,141.320374 
z"/>
<path fill="#EDE5EE" opacity="1.000000" stroke="none" 
	d="
M368.025696,130.978027 
	C375.533752,131.387512 378.572601,133.969574 379.049652,140.855103 
	C379.462128,146.808197 379.353149,152.804962 379.263977,158.779251 
	C379.244904,160.057053 378.318146,161.321320 377.809570,162.591827 
	C376.565552,161.884094 375.321533,161.176346 374.188538,160.531769 
	C371.069122,161.355377 367.679932,162.812805 364.214569,163.024551 
	C359.759033,163.296799 356.081512,159.845154 355.500244,155.689743 
	C354.848450,151.030090 356.561554,147.276871 361.074371,145.746933 
	C365.271545,144.324005 369.740540,143.702911 374.072693,142.732651 
	C375.110168,134.444214 371.055725,133.095932 358.807587,137.603394 
	C358.178802,133.112259 359.468231,132.140869 368.025696,130.978027 
M374.637177,151.742462 
	C374.730530,150.213730 374.823914,148.684998 374.951050,146.603531 
	C370.866577,147.324768 367.562531,147.697891 364.376831,148.526230 
	C360.744995,149.470581 358.938660,152.113617 360.310364,155.706329 
	C361.603851,159.094162 364.850739,160.667068 368.020447,158.960831 
	C370.574677,157.585861 372.326385,154.720001 374.637177,151.742462 
z"/>
<path fill="#EBE1EC" opacity="1.000000" stroke="none" 
	d="
M313.363464,119.610611 
	C318.144348,119.606659 322.471008,119.496292 326.784790,119.683495 
	C327.813110,119.728119 328.798279,120.766594 329.803314,121.347931 
	C328.770966,122.082031 327.771301,123.388496 326.700592,123.449600 
	C322.425476,123.693596 318.128265,123.550240 313.433167,123.550240 
	C313.433167,128.944031 313.433167,133.801941 313.433167,139.121933 
	C317.535980,139.121933 321.508667,138.968811 325.455078,139.223358 
	C326.518738,139.291962 327.502594,140.598297 328.523071,141.336487 
	C327.555878,141.953064 326.606110,142.600327 325.609406,143.164825 
	C325.357941,143.307251 324.956421,143.177170 324.624176,143.185562 
	C312.988037,143.479004 313.103912,143.481049 312.914551,155.457901 
	C312.876373,157.872131 311.375122,162.390472 310.914764,162.343567 
	C306.007263,161.843506 308.495392,157.777618 308.433899,155.358795 
	C308.138794,143.742813 308.301300,132.115204 308.301300,120.072914 
	C310.040619,119.899208 311.472595,119.756195 313.363464,119.610611 
z"/>
<path fill="#ECE4EE" opacity="1.000000" stroke="none" 
	d="
M540.140503,143.692505 
	C539.943787,147.062668 540.153564,150.141998 539.398987,152.963348 
	C537.557434,159.848373 532.290100,163.327866 524.778870,163.184219 
	C517.862732,163.051941 512.780273,159.032913 511.063843,152.338699 
	C507.876892,139.909546 515.187500,130.234116 527.205688,130.975311 
	C534.090088,131.399887 538.062805,135.189865 540.140503,143.692505 
M520.821655,135.863068 
	C514.780579,140.284302 513.044739,148.008636 516.669861,154.337784 
	C519.785522,159.777420 526.944458,161.239655 531.707336,157.409302 
	C535.911560,154.028214 537.272705,146.007690 534.600342,140.362320 
	C532.213989,135.321136 528.451599,133.923706 520.821655,135.863068 
z"/>
<path fill="#E6DBE8" opacity="1.000000" stroke="none" 
	d="
M178.390167,162.558136 
	C177.681168,158.895828 177.151291,155.351044 177.032272,151.792511 
	C176.860001,146.642670 176.891144,141.480133 177.041962,136.329041 
	C177.085907,134.828094 177.833481,133.347733 178.258514,131.857941 
	C179.750092,132.476852 181.241669,133.095764 183.020767,133.833984 
	C186.845535,130.757309 191.566238,129.617020 196.517120,132.159607 
	C201.373505,134.653671 201.818390,139.399490 201.780777,144.223297 
	C201.743179,149.045929 201.945297,153.879395 201.660309,158.685455 
	C201.579224,160.053055 200.165329,161.341614 199.362625,162.666428 
	C198.677582,161.394775 197.462418,160.147949 197.401489,158.847061 
	C197.168365,153.868729 197.373337,148.871857 197.287964,143.884079 
	C197.191620,138.255798 194.854446,135.096619 190.761627,134.804443 
	C186.323776,134.487625 181.878098,138.449127 181.578949,143.508560 
	C181.275146,148.646942 181.645447,153.825699 181.326187,158.962250 
	C181.246353,160.246368 179.651443,161.436295 178.390167,162.558136 
z"/>
<path fill="#ECE2ED" opacity="1.000000" stroke="none" 
	d="
M259.422974,134.082214 
	C256.112579,134.801743 252.802216,135.521255 249.039108,136.339188 
	C249.039108,141.657898 248.918488,147.105286 249.071472,152.544983 
	C249.240051,158.538651 250.096848,159.200592 257.279266,159.815216 
	C256.227478,160.888687 255.343597,162.589935 254.094040,162.924255 
	C249.320923,164.201263 245.344101,161.491577 245.036789,156.376648 
	C244.640121,149.774185 244.940140,143.129868 244.940140,136.269379 
	C243.177597,135.967896 242.011688,135.956787 241.025513,135.530182 
	C240.419434,135.268021 239.764511,134.389893 239.726166,133.752594 
	C239.689117,133.136871 240.456772,131.896805 240.799011,131.921631 
	C245.077362,132.232208 244.365448,129.227524 244.748215,126.611694 
	C244.950806,125.227203 246.234512,124.000908 247.030136,122.703201 
	C247.545303,122.884865 248.060471,123.066536 248.575623,123.248199 
	C248.807541,125.785530 249.039474,128.322861 249.354935,131.774185 
	C252.914810,131.774185 256.485229,131.774185 260.529755,132.166794 
	C261.035767,133.013351 261.067657,133.467300 261.050781,133.964630 
	C261.001984,134.007996 260.904572,134.094940 260.720551,134.074280 
	C260.165344,134.063141 259.794159,134.072678 259.422974,134.082214 
z"/>
<path fill="#EDE4ED" opacity="1.000000" stroke="none" 
	d="
M221.879135,158.896210 
	C225.338806,160.766129 224.158707,162.145416 221.565338,162.962402 
	C216.487137,164.562225 212.097214,161.097290 211.959686,155.287003 
	C211.810913,149.000931 211.926010,142.708618 211.926010,137.427734 
	C209.653564,135.679184 208.167557,134.535782 206.681549,133.392365 
	C208.098602,132.577271 209.515656,131.762177 211.264053,130.756500 
	C213.057693,123.860382 213.057693,123.860382 215.979752,123.379356 
	C216.177734,125.976021 216.374252,128.553452 216.521927,130.490463 
	C219.310135,131.710205 221.590530,132.707794 223.870926,133.705383 
	C221.679504,134.670471 219.488068,135.635544 216.403336,136.994019 
	C216.403336,142.592056 216.249985,149.171585 216.472351,155.738388 
	C216.573456,158.724197 218.797516,159.487488 221.879135,158.896210 
z"/>
<path fill="#E9DFE9" opacity="1.000000" stroke="none" 
	d="
M340.843781,161.155167 
	C338.593506,163.473907 336.986603,163.212067 336.942719,160.123672 
	C336.820190,151.505524 336.863861,142.883591 336.993835,134.265442 
	C337.006897,133.398987 338.055054,132.548141 338.622864,131.690063 
	C339.726990,132.459534 340.831116,133.229004 342.115082,134.123840 
	C349.793518,129.619568 351.683502,129.695114 352.103180,134.773087 
	C343.929626,135.843170 341.771881,138.104248 341.194092,146.834702 
	C340.888031,151.458939 340.995239,156.110519 340.843781,161.155167 
z"/>
<path fill="#E8DCE9" opacity="1.000000" stroke="none" 
	d="
M558.092407,135.375015 
	C553.421326,137.371460 552.341736,141.247620 552.030518,145.299362 
	C551.662109,150.095657 551.862244,154.933975 551.569763,159.739090 
	C551.508850,160.739380 550.371216,161.674103 549.729797,162.639038 
	C549.009583,161.744156 547.678467,160.859421 547.663391,159.952820 
	C547.509338,150.683975 547.569092,141.411591 547.569092,130.330566 
	C550.106812,132.353683 551.458313,133.431152 552.085510,133.931183 
	C555.330505,132.970184 558.334412,131.938065 561.422302,131.337509 
	C561.830750,131.258057 562.666870,133.377274 563.755371,135.255539 
	C561.280212,135.255539 559.878784,135.255539 558.092407,135.375015 
z"/>
<path fill="#ECE2ED" opacity="1.000000" stroke="none" 
	d="
M234.040359,146.011871 
	C234.031189,150.989914 234.141174,155.479507 233.916718,159.952301 
	C233.869980,160.883575 232.585464,161.752716 231.871368,162.650482 
	C231.144745,161.752274 229.803741,160.865356 229.787018,159.954117 
	C229.628677,151.321960 229.645996,142.684891 229.779022,134.051804 
	C229.791473,133.243622 230.944443,132.453003 231.567871,131.654236 
	C232.387741,132.455963 233.856796,133.212936 233.915680,134.067123 
	C234.177765,137.868713 234.036316,141.698120 234.040359,146.011871 
z"/>
<path fill="#ECE2ED" opacity="1.000000" stroke="none" 
	d="
M270.831177,154.047302 
	C271.357910,154.368683 271.884613,154.690063 273.064209,155.145508 
	C273.779236,156.929245 274.231689,158.682953 273.825287,160.207764 
	C272.868988,163.795715 271.502716,167.274414 270.302338,170.797318 
	C270.373932,171.137878 270.297363,171.441010 269.586609,171.941284 
	C268.395172,173.101700 267.689789,174.027542 266.984406,174.953369 
	C264.819153,175.509033 262.653900,176.064697 260.177429,176.114594 
	C259.632965,175.091095 259.399689,174.573364 259.166412,174.055634 
	C261.835632,172.218277 264.504852,170.380905 267.690918,168.101440 
	C271.188141,164.461212 270.963348,161.255814 269.291107,157.271500 
	C266.115631,149.705444 263.659485,141.837494 260.904572,134.094940 
	C260.904572,134.094940 261.001984,134.007996 261.357727,134.119797 
	C262.687958,136.272568 263.690704,138.300629 264.631134,140.357178 
	C266.714417,144.912949 268.766418,149.483047 270.831177,154.047302 
z"/>
<path fill="#E9E0EA" opacity="1.000000" stroke="none" 
	d="
M270.573822,170.552139 
	C271.502716,167.274414 272.868988,163.795715 273.825287,160.207764 
	C274.231689,158.682953 273.779236,156.929245 273.524597,155.067291 
	C273.983704,152.917587 274.635345,150.980164 275.552338,149.110031 
	C275.817657,150.446976 275.817657,151.716644 275.817657,152.986298 
	C277.113770,151.776733 277.523987,150.540680 278.073334,149.369919 
	C280.479614,144.241760 282.926208,139.132523 285.358215,134.016418 
	C280.520599,146.113266 275.682953,158.210114 270.573822,170.552139 
z"/>
<path fill="#E9E0EA" opacity="1.000000" stroke="none" 
	d="
M260.720551,134.074280 
	C263.659485,141.837494 266.115631,149.705444 269.291107,157.271500 
	C270.963348,161.255814 271.188141,164.461212 267.950714,167.834900 
	C270.232269,163.513245 269.064270,159.288528 267.181519,154.852051 
	C264.401825,148.302124 262.077301,141.559021 259.490967,134.490204 
	C259.794159,134.072678 260.165344,134.063141 260.720551,134.074280 
z"/>
<path fill="#ECE2ED" opacity="1.000000" stroke="none" 
	d="
M285.585815,133.674561 
	C282.926208,139.132523 280.479614,144.241760 278.073334,149.369919 
	C277.523987,150.540680 277.113770,151.776733 275.817657,152.986298 
	C275.817657,151.716644 275.817657,150.446976 275.782288,148.816742 
	C275.937073,147.811081 276.127167,147.165985 276.777649,146.066223 
	C278.440033,142.184921 279.642059,138.758316 280.844086,135.331696 
	C282.341614,130.953491 283.092621,130.651382 285.585815,133.674561 
z"/>
<path fill="#E9E0EA" opacity="1.000000" stroke="none" 
	d="
M270.805969,153.663361 
	C268.766418,149.483047 266.714417,144.912949 264.631134,140.357178 
	C263.690704,138.300629 262.687958,136.272568 261.406494,134.076416 
	C261.067657,133.467300 261.035767,133.013351 260.983765,132.218506 
	C262.015198,132.839691 263.565247,133.605484 264.034363,134.796875 
	C266.436401,140.897385 268.559937,147.107574 270.805969,153.663361 
z"/>
<path fill="#E6DBE8" opacity="1.000000" stroke="none" 
	d="
M229.164307,121.157669 
	C230.456711,118.328430 232.302017,117.726257 234.110397,119.914429 
	C234.688049,120.613388 234.390747,123.106651 233.675980,123.604286 
	C231.413666,125.179344 229.705246,124.238228 229.164307,121.157669 
z"/>
<path fill="#E9E0EA" opacity="1.000000" stroke="none" 
	d="
M280.594177,135.600388 
	C279.642059,138.758316 278.440033,142.184921 277.001373,145.810303 
	C277.957886,142.629059 279.151093,139.249069 280.594177,135.600388 
z"/>
<path fill="#E9E0EA" opacity="1.000000" stroke="none" 
	d="
M267.267761,174.859009 
	C267.689789,174.027542 268.395172,173.101700 269.391968,172.084106 
	C268.972595,172.916428 268.261841,173.840515 267.267761,174.859009 
z"/>
<path fill="#E9E0EA" opacity="1.000000" stroke="none" 
	d="
M259.068726,174.260681 
	C259.399689,174.573364 259.632965,175.091095 259.897278,175.894653 
	C259.609222,175.608887 259.290100,175.037292 259.068726,174.260681 
z"/>
<path fill="#69227B" opacity="1.000000" stroke="none" 
	d="
M551.855408,304.899353 
	C566.693115,312.475464 574.997864,328.488892 573.821167,347.041321 
	C546.812378,347.041321 519.781433,347.041321 492.731018,347.041321 
	C495.661774,311.196167 524.880676,294.806641 551.855408,304.899353 
z"/>
<path fill="#6F2981" opacity="1.000000" stroke="none" 
	d="
M442.392395,140.951447 
	C444.855835,136.479340 448.041412,133.763901 453.002899,135.060516 
	C457.074402,136.124573 458.427185,139.427246 458.768097,144.236740 
	C453.536194,144.236740 448.528717,144.315628 443.533020,144.109604 
	C443.055603,144.089920 442.651489,142.292496 442.392395,140.951447 
z"/>
<path fill="#732E83" opacity="1.000000" stroke="none" 
	d="
M374.535645,152.129028 
	C372.326385,154.720001 370.574677,157.585861 368.020447,158.960831 
	C364.850739,160.667068 361.603851,159.094162 360.310364,155.706329 
	C358.938660,152.113617 360.744995,149.470581 364.376831,148.526230 
	C367.562531,147.697891 370.866577,147.324768 374.951050,146.603531 
	C374.823914,148.684998 374.730530,150.213730 374.535645,152.129028 
z"/>
<path fill="#6E297F" opacity="1.000000" stroke="none" 
	d="
M521.187744,135.689850 
	C528.451599,133.923706 532.213989,135.321136 534.600342,140.362320 
	C537.272705,146.007690 535.911560,154.028214 531.707336,157.409302 
	C526.944458,161.239655 519.785522,159.777420 516.669861,154.337784 
	C513.044739,148.008636 514.780579,140.284302 521.187744,135.689850 
z"/>
</svg>